<svg xmlns="http://www.w3.org/2000/svg" viewBox="0 0 190 200">
    <g id="SvgjsG5588" transform="matrix(3.1951066247453626,0,0,3.1951066247453626,20.00002350974839,20.013334923299116)" fill="#ffffff"><path xmlns="http://www.w3.org/2000/svg" d="M23.11 55.78L1.69 43.41A3.39 3.39 0 0 1 0 40.48V15.75a3.39 3.39 0 0 1 1.69-2.94L23.11.45a3.39 3.39 0 0 1 3.39 0l21.41 12.37a3.39 3.39 0 0 1 1.69 2.94v24.72a3.39 3.39 0 0 1-1.69 2.94L26.5 55.78a3.39 3.39 0 0 1-3.39 0z"></path></g>

    <g id="SvgjsG2969" transform="matrix(2.6542773927645875,0,0,2.6542773927645875,59.92957777139886,8.140714853813954)" fill="#0d0d0d">
        <path d="M8.8932 53.2632c-0.8448 0-1.53-0.6858-1.53-1.5306l0-13.138c0-0.8436 0.32162-1.401 1.0518-1.8174l10.6-6.1326l0-9.2196c0-0.8448 0.6852-1.53 1.53-1.53s1.53 0.6852 1.53 1.53l0 9.7704c0 0.8436-0.32162 1.401-1.0518 1.8234l-10.6 6.1266l0 12.587c0 0.8448-0.6852 1.53-1.53 1.53zM8.8932 59.9975977c-0.28799 0-0.55447-0.079218-0.78486-0.21779l-5.5158-3.1884c-0.7302-0.4224-1.0518-0.9798-1.0518-1.8234l-0.0072072-33.349c0-0.8256 0.6768-1.5228 1.5283-1.5228c0.25383 0 0.51123 0.063576 0.74826 0.19676l5.5608 3.2088c0.7308 0.4224 1.0524 0.9798 1.0524 1.8234l0 6.4026c0 0.8448-0.6852 1.53-1.53 1.53s-1.53-0.6852-1.53-1.53l0-5.8524l-2.766-1.5984l0 30.14l5.037 2.9112c0.47039 0.26098 0.78894 0.7626 0.78894 1.3386c0 0.8448-0.6852 1.53-1.53 1.53z M20.539 59.9981836c-1.0092 0-1.5288-0.8892-1.5288-1.5385l0.0072072-12.581l-5.037-2.9112c-0.47039-0.26098-0.78894-0.7626-0.78894-1.3386c0-0.8448 0.6852-1.53 1.53-1.53c0.28799 0 0.5574 0.079806 0.7878 0.21838l5.5158 3.1884c0.7308 0.4224 1.0524 0.9798 1.0524 1.8234l0 10.486l3.5082-2.028c0.23039-0.13858 0.49981-0.21838 0.7878-0.21838c0.8448 0 1.53 0.6852 1.53 1.53c0 0.57598-0.32338 1.0691-0.78894 1.3386l-5.8074 3.3546c-0.23338 0.13441-0.49858 0.20584-0.768 0.20584zM26.376 49.894c-0.8448 0-1.53-0.6858-1.53-1.5306l0-5.8524l-5.037-2.9112c-0.47039-0.26098-0.78894-0.7626-0.78894-1.3386c0-0.8448 0.6852-1.53 1.53-1.53c0.28799 0 0.5574 0.079806 0.7878 0.21838l5.5158 3.1884c0.7308 0.4224 1.0524 0.9798 1.0524 1.8234l0 6.4026c0 0.8448-0.6852 1.53-1.53 1.53zM14.725 29.688c-0.8448 0-1.53-0.6858-1.53-1.5306l0-5.8524l-5.037-2.9112c-0.47039-0.26098-0.78894-0.7626-0.78894-1.3386c0-0.8448 0.6852-1.53 1.53-1.53c0.28799 0 0.5574 0.079806 0.7878 0.21838l5.5158 3.1884c0.7308 0.4224 1.0524 0.9798 1.0524 1.8234l0 6.4026c0 0.8448-0.6852 1.53-1.53 1.53zM26.376 36.422c-0.8448 0-1.53-0.6852-1.53-1.53l0-16.838c0-0.8448 0.6852-1.53 1.53-1.53s1.53 0.6852 1.53 1.53l0 16.838c0 0.8448-0.6852 1.53-1.53 1.53z"></path>
    </g>

</svg>
